<svg width="24" height="24" viewBox="0 0 24 24" fill="none" xmlns="http://www.w3.org/2000/svg">
<path d="M21.0294 10.5184C20.7813 7.95548 18.6275 6 16.0526 6H5C3.34315 6 2 7.34315 2 9V16.5C2 18.1569 3.34315 19.5 5 19.5H18.5942C20.3653 19.5 21.7509 17.9738 21.5803 16.211L21.0294 10.5184Z" stroke="#687176" stroke-width="2"></path>
<path d="M17.7117 12.6689V11.5H18.8478L19 13.0983L17.7117 12.6689Z" fill="#687176" stroke="#687176" stroke-width="3"></path>
<path d="M6.5 10.25H4.25C3.83579 10.25 3.5 10.5858 3.5 11V13.25C3.5 13.6642 3.83579 14 4.25 14H6.5C6.91421 14 7.25 13.6642 7.25 13.25V11C7.25 10.5858 6.91421 10.25 6.5 10.25Z" fill="#687176"></path>
<path d="M12.5 10.25H10.25C9.83579 10.25 9.5 10.5858 9.5 11V13.25C9.5 13.6642 9.83579 14 10.25 14H12.5C12.9142 14 13.25 13.6642 13.25 13.25V11C13.25 10.5858 12.9142 10.25 12.5 10.25Z" fill="#687176"></path>
<path d="M12.6667 8L16 5M16 5L12.6667 2M16 5H6" stroke="#687176" stroke-width="2" stroke-linecap="round" stroke-linejoin="round"></path>
<circle cx="2.5" cy="2.5" r="2.5" transform="matrix(-1 0 0 1 19 17.5)" fill="#687176"></circle>
<circle cx="2.5" cy="2.5" r="2.5" transform="matrix(-1 0 0 1 9 17.5)" fill="#687176"></circle>
</svg>