<svg width="24" height="24" viewBox="0 0 24 24" fill="none" xmlns="http://www.w3.org/2000/svg">
<path d="M3 9C3 9 3 7.49369 3 5.99995C3 4.89539 3.89543 4 4.99999 4H19C20.1046 4 21 4.89543 21 6V19C21 20.1046 20.1046 21 19 21H4.50001C3.67158 21 3.00001 20.3284 3.00001 19.5L3.00001 19M7 2V5M17 2V5M3 8H21" stroke="#687176" stroke-width="2" stroke-linecap="round" stroke-linejoin="round"></path>
<path d="M3 14H13M3 14L6 11M3 14L6 17M16.5 13.5H17.5V14.5H16.5V13.5Z" stroke="#687176" stroke-width="2" stroke-linecap="round" stroke-linejoin="round"></path>
</svg>