<svg xmlns="http://www.w3.org/2000/svg" xmlns:xlink="http://www.w3.org/1999/xlink" version="1.1" x="0px" y="0px" viewBox="0 0 100 125" enable-background="new 0 0 100 100" xml:space="preserve"><path d="M90.443,34.848c-2.548,0-4.613,2.065-4.613,4.614v31.534c-0.284,0.098-0.57,0.179-0.846,0.313  c-0.081,0.037-4.414,2.11-11.406,4.046c-2.226-1.561-5.054-2.257-7.933-1.7c-10.579,2.052-20.845,2.078-31.411,0.065  c-2.85-0.537-5.646,0.146-7.857,1.68c-6.969-1.933-11.286-4.014-11.414-4.076c-0.259-0.128-0.526-0.205-0.792-0.297V39.46  c0-2.547-2.065-4.614-4.614-4.614c-2.548,0-4.613,2.066-4.613,4.614v37.678c0,0.222,0.034,0.431,0.064,0.644  c0.096,2.447,1.456,4.772,3.804,5.939c0.398,0.196,5.779,2.828,14.367,5.164c1.438,2.634,3.997,4.626,7.174,5.233  c6.498,1.235,13.021,1.863,19.394,1.863c6.521,0,13.2-0.655,19.851-1.944c3.143-0.607,5.675-2.575,7.109-5.173  c8.575-2.324,13.97-4.931,14.369-5.127c2.187-1.073,3.54-3.146,3.805-5.396c0.104-0.385,0.179-0.784,0.179-1.202V39.46  C95.059,36.913,92.992,34.848,90.443,34.848z M20.733,37.154l-0.001,29.092c0.918,0.355,2.034,0.771,3.371,1.215  c3.577-1.812,7.759-2.428,11.756-1.672c9.628,1.837,18.689,1.814,28.359-0.063c4.035-0.78,8.207-0.165,11.794,1.641  c1.23-0.411,2.274-0.793,3.151-1.132l0.017-29.083c0-5.198,3.85-9.475,8.843-10.226V12.861c0-2.548-1.927-3.75-4.613-4.615  c0,0-14.627-4.23-33.165-4.23c-18.543,0-33.739,4.23-33.739,4.23c-2.619,0.814-4.614,2.065-4.614,4.615v14.066  C16.883,27.678,20.733,31.956,20.733,37.154z"/><text x="0" y="115" fill="#000000" font-size="5px" font-weight="bold" font-family="'Helvetica Neue', Helvetica, Arial-Unicode, Arial, Sans-serif">Created by Thengakola</text><text x="0" y="120" fill="#000000" font-size="5px" font-weight="bold" font-family="'Helvetica Neue', Helvetica, Arial-Unicode, Arial, Sans-serif">from the Noun Project</text></svg>